<svg id="Layer_1" data-name="Layer 1" xmlns="http://www.w3.org/2000/svg" xmlns:xlink="http://www.w3.org/1999/xlink" viewBox="0 0 167.59 156.39"><defs><style>.cls-1{fill:url(#New_Gradient_Swatch);}.cls-2{fill:#662483;}.cls-3{fill:url(#linear-gradient);}.cls-4{fill:#026551;}.cls-5{fill:url(#linear-gradient-2);}.cls-6{fill:url(#New_Gradient_Swatch_1);}.cls-7{fill:url(#New_Gradient_Swatch-2);}.cls-8{fill:url(#New_Gradient_Swatch_7);}</style><linearGradient id="New_Gradient_Swatch" x1="5" y1="80.44" x2="101.87" y2="80.44" gradientUnits="userSpaceOnUse"><stop offset="0" stop-color="#29235c"/><stop offset="1" stop-color="#662483"/></linearGradient><linearGradient id="linear-gradient" x1="3124.27" y1="-855.98" x2="3085.01" y2="-913.34" gradientTransform="matrix(-0.81, 0.58, 0.58, 0.81, 3110.7, -1025.36)" gradientUnits="userSpaceOnUse"><stop offset="0" stop-color="#2c797f"/><stop offset="0.99" stop-color="#68b976"/></linearGradient><linearGradient id="linear-gradient-2" x1="3088.13" y1="-894.72" x2="3091.78" y2="-826.44" xlink:href="#linear-gradient"/><linearGradient id="New_Gradient_Swatch_1" x1="3031.76" y1="-814.12" x2="3114.33" y2="-814.12" gradientTransform="matrix(-0.81, 0.58, 0.58, 0.81, 3110.7, -1025.36)" gradientUnits="userSpaceOnUse"><stop offset="0" stop-color="#df2987"/><stop offset="1" stop-color="#843d82"/></linearGradient><linearGradient id="New_Gradient_Swatch-2" x1="3031.76" y1="-819.34" x2="3083.03" y2="-819.34" gradientTransform="matrix(-0.81, 0.58, 0.58, 0.81, 3110.7, -1025.36)" xlink:href="#New_Gradient_Swatch"/><linearGradient id="New_Gradient_Swatch_7" x1="3333.04" y1="140.62" x2="3384.93" y2="140.62" gradientTransform="matrix(-1, -0.03, -0.03, 1, 3495.24, 57.3)" gradientUnits="userSpaceOnUse"><stop offset="0" stop-color="#eb5c39"/><stop offset="0.99" stop-color="#f29231"/></linearGradient></defs><title>Artboard 1</title><path class="cls-1" d="M35.51,114.33c33,18.26,66.36,10.44,66.36,10.44-31.32-1.61-52.73-16.23-67.16-33.22q1,1.22,2.12,2.42c5.39-1.38,14.81-2.53,26.84,1.1,10.27,3.1,22.45,9.67,35.66,22.57,0,0-3.49-90.46-92-82.71l-.21,0,0,.08,0-.08C2.64,46.77,2.49,96.07,35.51,114.33Zm-.86-22.85C17.18,70.86,10,46.78,7.83,38.2,10,46.79,17.19,70.87,34.66,91.48ZM7.16,35.27l0-.21Zm.1.45-.08-.36Zm.56,2.4c-.25-1-.43-1.78-.55-2.32C7.39,36.34,7.57,37.13,7.82,38.13Z"/><path class="cls-2" d="M161.24,142.2a1.77,1.77,0,1,1-1.77-1.79A1.7,1.7,0,0,1,161.24,142.2Zm-1.77,1.51A1.51,1.51,0,1,0,158,142.2,1.41,1.41,0,0,0,159.47,143.71Zm.3-1.3a.59.59,0,0,0-.13-1.16h-.84v1.86h.28v-.67h.37l.57.67h.31v-.06Zm-.13-.9a.33.33,0,1,1,0,.67h-.55v-.67Z"/><path class="cls-2" d="M29.37,147.88v3.64H28.28V140.59h4.89c4.89,0,4.89,7.27,0,7.29Zm0-1h3.79c3.42,0,3.42-5.23,0-5.23H29.37Z"/><path class="cls-2" d="M61.74,146.09a5.54,5.54,0,1,1-5.53-5.68A5.35,5.35,0,0,1,61.74,146.09Zm-5.53,4.61a4.32,4.32,0,0,0,4.43-4.61c0-2.45-1.45-4.64-4.43-4.65a4.25,4.25,0,0,0-4.45,4.65C51.8,148.48,53.24,150.69,56.22,150.69Z"/><path class="cls-2" d="M77.66,140.59v9.9h6.07v1H76.57V140.59Z"/><path class="cls-2" d="M105.86,142.75a4.82,4.82,0,0,0-3.36-1.31,4.41,4.41,0,0,0-4.57,4.67,4.29,4.29,0,0,0,4.57,4.51,4.7,4.7,0,0,0,3.14-1.19v-2.76h-3.58v-1h4.62v4.23a5.6,5.6,0,0,1-4.18,1.8,5.28,5.28,0,0,1-5.67-5.56,5.39,5.39,0,0,1,5.67-5.71,5.7,5.7,0,0,1,4,1.64Z"/><path class="cls-2" d="M129.52,151.52h-7.84V140.59h7.7v1h-6.6v3.92h6.31v1h-6.31v3.93h6.74Z"/><path class="cls-2" d="M152.17,149.46l-.06-3.62v-5.25h1.09v10.93h-.66l-7.07-8.79,0,3.23v5.56h-1.09V140.59h.69Z"/><path class="cls-3" d="M102.67,126.58s-33.45-7.32-55.37-38-.52-75.13,8.6-83.88C55.9,4.66,33.57,89.07,102.67,126.58Z"/><path class="cls-4" d="M57.28,70.74C47.32,37.13,55.9,4.66,55.9,4.66l.19.08C59.35,42.54,72.61,69.57,81,83.31,71.73,74.85,62.74,71.82,57.28,70.74Z"/><path class="cls-5" d="M81,83.31C72.61,69.57,59.35,42.54,56.09,4.74c83.23,31.2,47.36,114.32,47.36,114.32C97.1,101.72,89,90.54,81,83.31Z"/><path class="cls-6" d="M105.28,124.35a74,74,0,0,0,40.73-15c19.76-15,17.74-43.46,14.52-49.69C160.53,59.62,153.8,111.36,105.28,124.35Z"/><path class="cls-7" d="M144.4,97.74a90.74,90.74,0,0,0,16.13-38.11l-.13,0A136.24,136.24,0,0,1,127.8,102C135.12,98.29,141,97.67,144.4,97.74Z"/><path class="cls-8" d="M127.8,102a136.24,136.24,0,0,0,32.6-42.38c-55.2,7.56-53.83,60.26-53.83,60.26C114.26,110.66,121.55,105.21,127.8,102Z"/></svg>