<svg id="Layer_1" data-name="Layer 1" xmlns="http://www.w3.org/2000/svg" xmlns:xlink="http://www.w3.org/1999/xlink" viewBox="0 0 224.03 56.01"><defs><style>.cls-1{fill:url(#New_Gradient_Swatch);}.cls-2{fill:#662483;}.cls-3{fill:url(#linear-gradient);}.cls-4{fill:#026551;}.cls-5{fill:url(#linear-gradient-2);}.cls-6{fill:url(#New_Gradient_Swatch_1);}.cls-7{fill:url(#New_Gradient_Swatch-2);}.cls-8{fill:url(#New_Gradient_Swatch_7);}</style><linearGradient id="New_Gradient_Swatch" x1="5.6" y1="32.87" x2="40.41" y2="32.87" gradientUnits="userSpaceOnUse"><stop offset="0" stop-color="#29235c"/><stop offset="1" stop-color="#662483"/></linearGradient><linearGradient id="linear-gradient" x1="3227.92" y1="-957.52" x2="3213.81" y2="-978.14" gradientTransform="matrix(-0.81, 0.58, 0.58, 0.81, 3212.88, -1058.07)" gradientUnits="userSpaceOnUse"><stop offset="0" stop-color="#2c797f"/><stop offset="0.99" stop-color="#68b976"/></linearGradient><linearGradient id="linear-gradient-2" x1="3214.93" y1="-971.45" x2="3216.24" y2="-946.91" xlink:href="#linear-gradient"/><linearGradient id="New_Gradient_Swatch_1" x1="3194.67" y1="-942.48" x2="3224.35" y2="-942.48" gradientTransform="matrix(-0.81, 0.58, 0.58, 0.81, 3212.88, -1058.07)" gradientUnits="userSpaceOnUse"><stop offset="0" stop-color="#df2987"/><stop offset="1" stop-color="#843d82"/></linearGradient><linearGradient id="New_Gradient_Swatch-2" x1="3194.67" y1="-944.36" x2="3213.1" y2="-944.36" gradientTransform="matrix(-0.81, 0.58, 0.58, 0.81, 3212.88, -1058.07)" xlink:href="#New_Gradient_Swatch"/><linearGradient id="New_Gradient_Swatch_7" x1="3427.38" y1="89.64" x2="3446.03" y2="89.64" gradientTransform="matrix(-1, -0.03, -0.03, 1, 3489.58, 57.21)" gradientUnits="userSpaceOnUse"><stop offset="0" stop-color="#eb5c39"/><stop offset="0.99" stop-color="#f29231"/></linearGradient></defs><title>Artboard 1 copy</title><path class="cls-1" d="M16.57,45A36.49,36.49,0,0,0,40.41,48.8,32.83,32.83,0,0,1,16.28,36.86l.76.87a17.92,17.92,0,0,1,9.65.4c3.69,1.11,8.07,3.48,12.82,8.11,0,0-1.25-32.51-33.08-29.73H6.35v0C4.75,20.77,4.7,38.49,16.57,45Zm-.31-8.21A49.51,49.51,0,0,1,6.62,17.69,49.53,49.53,0,0,0,16.26,36.84ZM6.38,16.64l0-.07Zm0,.16,0-.13Zm.2.86c-.09-.36-.15-.64-.2-.84C6.46,17,6.52,17.3,6.61,17.66Z"/><path class="cls-2" d="M214.61,29.34a1.77,1.77,0,1,1-1.77-1.79A1.7,1.7,0,0,1,214.61,29.34Zm-1.77,1.51a1.51,1.51,0,1,0-1.46-1.51A1.41,1.41,0,0,0,212.83,30.85Zm.3-1.3a.59.59,0,0,0-.13-1.16h-.84v1.86h.28v-.67h.37l.57.67h.31v-.06Zm-.13-.9a.33.33,0,1,1,0,.67h-.55v-.67Z"/><path class="cls-2" d="M82.74,35v3.64H81.65V27.73h4.89c4.89,0,4.89,7.27,0,7.29Zm0-1h3.79c3.42,0,3.42-5.23,0-5.23H82.74Z"/><path class="cls-2" d="M115.11,33.23a5.54,5.54,0,1,1-11.07,0,5.54,5.54,0,1,1,11.07,0Zm-5.53,4.61A4.32,4.32,0,0,0,114,33.23c0-2.45-1.45-4.64-4.43-4.65a4.25,4.25,0,0,0-4.45,4.65C105.17,35.61,106.6,37.83,109.58,37.83Z"/><path class="cls-2" d="M131,27.73v9.9h6.07v1h-7.17V27.73Z"/><path class="cls-2" d="M159.23,29.88a4.82,4.82,0,0,0-3.36-1.31,4.41,4.41,0,0,0-4.57,4.67,4.29,4.29,0,0,0,4.57,4.51A4.7,4.7,0,0,0,159,36.57V33.8h-3.58v-1h4.62V37a5.6,5.6,0,0,1-4.18,1.8,5.28,5.28,0,0,1-5.67-5.56,5.39,5.39,0,0,1,5.67-5.71,5.7,5.7,0,0,1,4,1.64Z"/><path class="cls-2" d="M182.89,38.66h-7.84V27.73h7.7v1h-6.6v3.92h6.31v1h-6.31v3.93h6.74Z"/><path class="cls-2" d="M205.54,36.6,205.47,33V27.73h1.09V38.66h-.66l-7.07-8.79,0,3.23v5.56h-1.09V27.73h.69Z"/><path class="cls-3" d="M40.7,49.45A36.49,36.49,0,0,1,20.8,35.78c-7.88-11-.19-27,3.09-30.14C23.89,5.64,15.87,36,40.7,49.45Z"/><path class="cls-4" d="M24.39,29.38a49,49,0,0,1-.49-23.75l.07,0a65.15,65.15,0,0,0,9,28.24A17.92,17.92,0,0,0,24.39,29.38Z"/><path class="cls-5" d="M32.92,33.9A65.15,65.15,0,0,1,24,5.66C53.87,16.88,41,46.75,41,46.75,38.7,40.52,35.77,36.5,32.92,33.9Z"/><path class="cls-6" d="M41.64,48.65a26.58,26.58,0,0,0,14.64-5.41c7.1-5.4,6.38-15.62,5.22-17.86C61.49,25.39,59.08,44,41.64,48.65Z"/><path class="cls-7" d="M55.7,39.09a32.61,32.61,0,0,0,5.8-13.7h0A49,49,0,0,1,49.73,40.63,12.69,12.69,0,0,1,55.7,39.09Z"/><path class="cls-8" d="M49.73,40.63A49,49,0,0,0,61.45,25.4C41.61,28.11,42.1,47.05,42.1,47.05A24.7,24.7,0,0,1,49.73,40.63Z"/></svg>